<svg width="10" height="18" viewBox="0 0 10 18" fill="none" xmlns="http://www.w3.org/2000/svg">
<path d="M6.33656 5.2916C6.33656 4.05914 6.95279 4.05914 7.56903 4.05914H8.3085C8.43197 4.0608 8.55451 4.0377 8.6689 3.99122C8.78329 3.94473 8.88721 3.8758 8.97452 3.78849C9.06183 3.70118 9.13077 3.59726 9.17725 3.48287C9.22374 3.36848 9.24683 3.24593 9.24517 3.12247V1.96395C9.24519 1.83991 9.22056 1.71709 9.17271 1.60264C9.12487 1.48818 9.05478 1.38437 8.96649 1.29723C8.8782 1.21009 8.77348 1.14136 8.65841 1.09501C8.54334 1.04867 8.42022 1.02565 8.29618 1.02728L6.54608 1.00263C6.0365 0.982924 5.5287 1.07402 5.05774 1.26964C4.58679 1.46526 4.16389 1.76074 3.81823 2.13569C3.47257 2.51065 3.21239 2.95613 3.05564 3.44141C2.89889 3.9267 2.84931 4.44021 2.91032 4.94651V6.73359H1.93667C1.68825 6.73359 1.45 6.83227 1.27434 7.00793C1.09868 7.18359 1 7.42184 1 7.67026V8.82877C1 9.07719 1.09868 9.31544 1.27434 9.4911C1.45 9.66676 1.68825 9.76544 1.93667 9.76544H2.91032V16.3838C2.91032 16.5472 2.97524 16.7039 3.09081 16.8195C3.20637 16.9351 3.36311 17 3.52655 17H5.75731C5.91425 16.9906 6.06165 16.9215 6.16934 16.8069C6.27702 16.6924 6.33685 16.541 6.33656 16.3838V9.76544H7.42113C7.66955 9.76544 7.9078 9.66676 8.08346 9.4911C8.25912 9.31544 8.3578 9.07719 8.3578 8.82877V7.67026C8.3578 7.42184 8.25912 7.18359 8.08346 7.00793C7.9078 6.83227 7.66955 6.73359 7.42113 6.73359H6.33656V5.2916Z" stroke="white" stroke-width="0.75" stroke-linecap="round" stroke-linejoin="round"/>
</svg>
