<svg width="17" height="18" viewBox="0 0 17 18" fill="none" xmlns="http://www.w3.org/2000/svg">
<path d="M2.02381 4.04762C2.86539 4.04762 3.54762 3.36539 3.54762 2.52381C3.54762 1.68223 2.86539 1 2.02381 1C1.18223 1 0.5 1.68223 0.5 2.52381C0.5 3.36539 1.18223 4.04762 2.02381 4.04762Z" stroke="#0096FF" stroke-width="0.75" stroke-linejoin="round"/>
<path d="M0.5 17.0002V6.3335H3.54762V17.0002H0.5Z" stroke="#0096FF" stroke-width="0.75" stroke-linejoin="round"/>
<path d="M5.45239 6.3335V17.0002H8.50001V11.7373C8.50001 10.9049 9.26192 9.38112 11.4679 9.38112C12.7193 9.38112 13.4524 10.0251 13.4524 11.2859V17.0002H16.5V11.2859C16.5 10.2888 16.262 9.04832 15.4378 8.02713C14.5663 6.94727 13.2186 6.3335 11.4679 6.3335C10.3159 6.3335 9.30816 6.80222 8.50001 7.37456V6.3335H5.45239Z" stroke="#0096FF" stroke-width="0.75" stroke-linejoin="round"/>
</svg>
