<svg width="17" height="18" viewBox="0 0 17 18" fill="none" xmlns="http://www.w3.org/2000/svg">
<path d="M0.599912 13.3686C0.698149 15.3194 2.18059 16.8019 4.13143 16.9001C5.26358 16.9571 6.71017 17 8.5 17C10.2898 17 11.7364 16.9571 12.8686 16.9001C14.8194 16.8019 16.3018 15.3194 16.4001 13.3686C16.4571 12.2364 16.5 10.7898 16.5 9C16.5 7.21017 16.4571 5.76358 16.4001 4.63143C16.3019 2.68059 14.8194 1.19815 12.8686 1.09992C11.7364 1.0429 10.2898 1 8.5 1C6.71017 1 5.26358 1.0429 4.13143 1.09991C2.18059 1.19815 0.698152 2.68059 0.599916 4.63143C0.542903 5.76358 0.5 7.21017 0.5 9C0.5 10.7898 0.542903 12.2364 0.599912 13.3686Z" stroke="#0096FF" stroke-linecap="round" stroke-linejoin="round"/>
<path d="M8.49995 12.8095C10.6039 12.8095 12.3095 11.1039 12.3095 8.99995C12.3095 6.89601 10.6039 5.19043 8.49995 5.19043C6.39601 5.19043 4.69043 6.89601 4.69043 8.99995C4.69043 11.1039 6.39601 12.8095 8.49995 12.8095Z" stroke="#0096FF" stroke-linecap="round" stroke-linejoin="round"/>
<path d="M13.0713 4.04785H13.4531" stroke="#0096FF" stroke-linecap="round" stroke-linejoin="round"/>
</svg>
