<svg width="14" height="13" viewBox="0 0 14 13" fill="none" xmlns="http://www.w3.org/2000/svg">
<path d="M8.46497 12.6608C8.24348 12.6612 8.04054 12.5372 7.93997 12.3398L6.19897 8.85282C6.1021 8.66021 6.11821 8.43006 6.24097 8.25282L9.05197 4.44782L5.23997 7.25782C5.0628 7.3808 4.83254 7.39691 4.63997 7.29982L1.16297 5.55882C0.954725 5.45378 0.828427 5.23541 0.84122 5.00253C0.854014 4.76964 1.00347 4.56642 1.22197 4.48482L12.369 0.375824C12.5836 0.296351 12.8249 0.349147 12.9868 0.511008C13.1486 0.672868 13.2014 0.914158 13.122 1.12882L9.01497 12.2768C8.93394 12.4961 8.73037 12.6462 8.49697 12.6588L8.46497 12.6608Z" fill="white"/>
</svg>
