<svg width="160" height="160" viewBox="0 0 160 160" fill="none" xmlns="http://www.w3.org/2000/svg">
<g clip-path="url(#clip0_606_2459)">
<path fill-rule="evenodd" clip-rule="evenodd" d="M12.3011 0.150477C10.0044 0.452408 7.31999 1.63712 5.2541 3.26042C3.09617 4.95596 1.3214 7.70034 0.461027 10.6716L0.000227786 12.2633V26.5359V40.8083L0.65371 41.3923C1.36242 42.0256 2.12795 42.1376 3.00713 41.7371C4.12421 41.228 4.1014 41.5336 4.109 27.0297C4.11681 12.4234 4.13121 12.2113 5.27671 9.88449C6.49043 7.41922 8.7254 5.5172 11.2967 4.76187C12.5166 4.40372 13.5475 4.3709 26.4483 4.28066C38.5105 4.19643 40.3691 4.1434 40.8987 3.86969C42.0986 3.24922 42.2997 1.79179 41.3345 0.71152L40.7508 0.0580371L27.0783 0.0316257C19.5587 0.0170194 12.9088 0.0704429 12.3011 0.150477ZM118.852 0.229511C117.33 0.907604 117.346 3.38708 118.875 3.96873C119.176 4.08298 124.734 4.16121 132.721 4.16321C147.353 4.16701 147.727 4.19283 150.065 5.35353C152.455 6.53964 154.333 8.72178 155.211 11.3329C155.654 12.6475 155.66 12.8334 155.763 26.737L155.868 40.8107L156.429 41.2933C157.243 41.9934 158.365 41.9528 159.216 41.1922L159.869 40.6082V26.4358C159.869 10.5418 159.923 11.1997 158.38 8.0615C156.591 4.42132 153.639 1.93005 149.465 0.536444L148.064 0.068842L133.758 0.0154185C122.16 -0.0278002 119.338 0.0126172 118.852 0.229511ZM3.55356 78.0888C2.61316 78.4982 2.15996 79.5324 2.4689 80.5639C2.60675 81.0237 2.92889 81.4963 3.24643 81.7043C3.76306 82.0429 7.37141 82.0603 80.3636 82.0765L156.939 82.0935L157.504 81.6741C158.173 81.1775 158.53 80.0284 158.255 79.2571C158.153 78.9688 157.814 78.5436 157.504 78.3123L156.939 77.8917L80.5705 77.8491C15.1994 77.8127 4.1086 77.8471 3.55356 78.0888ZM1.38483 118.105C1.06349 118.243 0.620496 118.556 0.400401 118.803C0.00823124 119.243 0.000227786 119.535 0.000227786 133.487C0.000227786 149.457 -0.0535956 148.793 1.49347 151.924C3.34487 155.671 6.36698 158.195 10.508 159.455C11.9952 159.907 12.1009 159.911 26.1533 159.979C36.0192 160.026 40.549 159.98 41.119 159.827C42.6871 159.405 43.1703 157.587 42.0202 156.436L41.5094 155.925L27.0575 155.819C13.8214 155.721 12.513 155.682 11.5052 155.35C8.83765 154.472 6.44341 152.473 5.32133 150.189C4.13141 147.765 4.1094 147.451 4.1048 132.815C4.1006 119.907 4.0886 119.49 3.70403 118.859C3.48593 118.502 3.28305 118.209 3.25323 118.209C3.22342 118.209 2.92229 118.13 2.58415 118.033C2.17157 117.914 1.777 117.938 1.38483 118.105ZM156.718 118.025C155.764 118.581 155.768 118.516 155.764 132.755C155.76 147.457 155.739 147.764 154.548 150.189C153.737 151.841 152.006 153.596 150.379 154.418C147.707 155.767 148.708 155.689 132.513 155.813L117.762 155.925L117.306 156.381C116.952 156.735 116.851 157.063 116.851 157.849C116.851 158.704 116.936 158.935 117.397 159.332C117.698 159.59 118.328 159.858 118.798 159.927C119.268 159.996 126 160.02 133.758 159.981C147.762 159.911 147.875 159.907 149.362 159.455C154.392 157.925 157.958 154.318 159.417 149.284C159.868 147.726 159.869 147.685 159.869 133.349V118.977L159.216 118.393C158.525 117.775 157.425 117.613 156.718 118.025Z" fill="white"/>
</g>
<defs>
<clipPath id="clip0_606_2459">
<rect width="160" height="160" fill="white"/>
</clipPath>
</defs>
</svg>
