<svg width="15" height="17" viewBox="0 0 15 17" fill="none" xmlns="http://www.w3.org/2000/svg">
<path d="M4.89199 7.34973C2.46135 7.51852 0.375 9.25061 0.375 11.9054C0.375 14.4289 2.39734 16.4746 4.89199 16.4746C7.38664 16.4746 9.40897 14.4289 9.40897 11.9054L9.27847 6.20913C10.4136 7.08483 12.2268 7.61452 13.9046 7.69916C14.2048 7.71431 14.4927 7.57796 14.5628 7.28568C14.5986 7.13677 14.625 6.94305 14.625 6.69581C14.625 6.44857 14.5986 6.25485 14.5628 6.10597C14.4927 5.81362 14.2041 5.68672 13.905 5.6568C11.6364 5.4297 9.49999 3.5943 9.19448 1.42691C9.15578 1.15259 9.0021 0.899618 8.73397 0.829853C8.52082 0.774383 8.23665 0.724609 7.90331 0.724609C7.56956 0.724609 7.28513 0.774499 7.0719 0.830044C6.80419 0.899776 6.64462 1.15112 6.63825 1.42769L6.39765 11.9054C6.39765 12.7465 5.72355 13.4284 4.89199 13.4284C4.06042 13.4284 3.38633 12.7465 3.38633 11.9054C3.38633 11.0309 4.1172 10.468 4.89199 10.3238" stroke="#0096FF" stroke-width="0.75" stroke-linecap="round" stroke-linejoin="round"/>
</svg>
