<svg width="19" height="15" viewBox="0 0 19 15" fill="none" xmlns="http://www.w3.org/2000/svg">
<path d="M10.8103 1.08612C8.8891 2.36748 9.20204 4.19857 9.32088 4.81348C5.73447 4.60243 3.39019 2.57433 2.48608 1.63233C2.28463 1.42243 1.9182 1.46996 1.834 1.74752C0.926704 4.73869 4.0168 7.46449 4.0168 7.46449C3.47051 7.46449 2.37956 7.28043 1.75507 7.16622C1.51292 7.12192 1.28818 7.30715 1.34138 7.54573C1.74792 9.36873 4.36601 11.3746 6.07615 11.3291C4.99368 12.3484 3.61838 12.725 2.55718 12.8529C2.14809 12.9022 1.97877 13.51 2.3553 13.6762C8.82256 16.5312 16.6926 11.6452 16.2919 3.95384L17.5951 2.11373C17.7816 1.85046 17.5815 1.48951 17.2576 1.50478L15.3435 1.59499C14.5819 0.701005 12.5526 -0.0758782 10.8103 1.08612Z" stroke="#0096FF" stroke-linecap="round" stroke-linejoin="round"/>
</svg>
